<svg id="Capa_1" enable-background="new 0 0 512 512" width="20" height="20" viewBox="0 0 512 512"
    xmlns="http://www.w3.org/2000/svg">
    <g>
        <path d="m108.552 229.503h294.898c4.143 0 7.5-3.357 7.5-7.5s-3.357-7.5-7.5-7.5h-294.898c-4.142 0-7.5 3.357-7.5 7.5s3.357 7.5 7.5 7.5z"/>
        <path d="m108.552 297.134h294.898c4.143 0 7.5-3.357 7.5-7.5s-3.357-7.5-7.5-7.5h-294.898c-4.142 0-7.5 3.357-7.5 7.5s3.357 7.5 7.5 7.5z"/>
        <path d="m108.552 364.766h294.898c4.143 0 7.5-3.357 7.5-7.5s-3.357-7.5-7.5-7.5h-294.898c-4.142 0-7.5 3.357-7.5 7.5s3.357 7.5 7.5 7.5z"/>
        <path d="m108.552 432.396h147.448c4.143 0 7.5-3.357 7.5-7.5s-3.357-7.5-7.5-7.5h-147.448c-4.142 0-7.5 3.357-7.5 7.5s3.357 7.5 7.5 7.5z"/>
        <path d="m456.79 118.946-116.75-116.75c-1.407-1.406-3.314-2.196-5.303-2.196h-247.75c-18.733 0-33.974 15.24-33.974 33.974v55.359c0 4.143 3.358 7.5 7.5 7.5s7.5-3.357 7.5-7.5v-55.359c0-10.462 8.512-18.974 18.974-18.974h240.25v89.247c0 15.165 12.338 27.503 27.503 27.503h89.247v250.917c0 4.143 3.357 7.5 7.5 7.5s7.5-3.357 7.5-7.5v-258.417c0-1.989-.79-3.896-2.197-5.304zm-114.553-14.699v-78.641l91.144 91.144h-78.641c-6.895 0-12.503-5.608-12.503-12.503z"/>
        <path d="m451.487 414.5c-4.143 0-7.5 3.357-7.5 7.5v56.026c0 10.462-8.511 18.974-18.973 18.974h-338.027c-10.462 0-18.973-8.512-18.973-18.974v-349.588c0-4.143-3.358-7.5-7.5-7.5s-7.5 3.357-7.5 7.5v349.589c0 18.733 15.24 33.974 33.973 33.974h338.027c18.732 0 33.973-15.24 33.973-33.974v-56.027c0-4.143-3.358-7.5-7.5-7.5z"/>
        <path d="m165.798 167.842c35.702 0 64.747-29.045 64.747-64.747s-29.045-64.747-64.747-64.747c-35.701 0-64.747 29.045-64.747 64.747s29.046 64.747 64.747 64.747zm-11.715-77.344c0-6.46 5.255-11.715 11.715-11.715s11.715 5.255 11.715 11.715-5.255 11.715-11.715 11.715c-6.459 0-11.715-5.255-11.715-11.715zm11.715 26.715c14.759 0 28.538 7.196 37.032 19.065-1.26 1.404-2.597 2.737-4.007 3.991-.043.038-.086.076-.128.114-.038.034-.077.067-.115.101-8.911 7.792-20.438 12.274-32.441 12.357-.007 0-.014 0-.021 0-.107 0-.213.001-.32.001s-.213 0-.32-.001c-.007 0-.014 0-.021 0-11.996-.083-23.516-4.56-32.426-12.344-.048-.042-.097-.085-.145-.127-.035-.031-.07-.062-.106-.093-1.412-1.256-2.752-2.591-4.014-3.997 8.494-11.871 22.273-19.067 37.032-19.067zm0-63.865c27.431 0 49.747 22.316 49.747 49.747 0 7.061-1.479 13.783-4.143 19.874-6.542-7.492-14.809-13.233-24.011-16.758 3.22-4.413 5.122-9.844 5.122-15.713 0-14.73-11.984-26.715-26.715-26.715-14.73 0-26.715 11.984-26.715 26.715 0 5.868 1.902 11.3 5.122 15.713-9.201 3.525-17.468 9.265-24.01 16.757-2.664-6.09-4.143-12.812-4.143-19.873 0-27.431 22.316-49.747 49.746-49.747z"/>
    </g>
</svg>